<svg xmlns="http://www.w3.org/2000/svg" xmlns:xlink="http://www.w3.org/1999/xlink" contentStyleType="text/css" data-diagram-type="DESCRIPTION" height="305px" preserveAspectRatio="none" style="width:651px;height:305px;background:#FFFFFF;" version="1.1" viewBox="0 0 651 305" width="651px" zoomAndPan="magnify"><defs/><g><!--entity github--><g id="elem_github"><rect fill="#F1F1F1" height="46.2969" rx="2.5" ry="2.5" style="stroke:#181818;stroke-width:0.5;" width="88.5146" x="88.13" y="253.59"/><rect fill="#F1F1F1" height="10" style="stroke:#181818;stroke-width:0.5;" width="15" x="156.6446" y="258.59"/><rect fill="#F1F1F1" height="2" style="stroke:#181818;stroke-width:0.5;" width="4" x="154.6446" y="260.59"/><rect fill="#F1F1F1" height="2" style="stroke:#181818;stroke-width:0.5;" width="4" x="154.6446" y="264.59"/><text fill="#000000" font-family="sans-serif" font-size="14" lengthAdjust="spacing" textLength="48.5146" x="103.13" y="286.5851">GitHub</text></g><!--entity git--><g id="elem_git"><rect fill="#F1F1F1" height="46.2969" rx="2.5" ry="2.5" style="stroke:#181818;stroke-width:0.5;" width="60.2275" x="144.28" y="130.3"/><rect fill="#F1F1F1" height="10" style="stroke:#181818;stroke-width:0.5;" width="15" x="184.5075" y="135.3"/><rect fill="#F1F1F1" height="2" style="stroke:#181818;stroke-width:0.5;" width="4" x="182.5075" y="137.3"/><rect fill="#F1F1F1" height="2" style="stroke:#181818;stroke-width:0.5;" width="4" x="182.5075" y="141.3"/><text fill="#000000" font-family="sans-serif" font-size="14" lengthAdjust="spacing" textLength="20.2275" x="159.28" y="163.2951">Git</text></g><!--entity codespaces--><g id="elem_codespaces"><rect fill="#F1F1F1" height="46.2969" rx="2.5" ry="2.5" style="stroke:#181818;stroke-width:0.5;" width="177.1699" x="239.81" y="130.3"/><rect fill="#F1F1F1" height="10" style="stroke:#181818;stroke-width:0.5;" width="15" x="396.9799" y="135.3"/><rect fill="#F1F1F1" height="2" style="stroke:#181818;stroke-width:0.5;" width="4" x="394.9799" y="137.3"/><rect fill="#F1F1F1" height="2" style="stroke:#181818;stroke-width:0.5;" width="4" x="394.9799" y="141.3"/><text fill="#000000" font-family="sans-serif" font-size="14" lengthAdjust="spacing" textLength="137.1699" x="254.81" y="163.2951">GitHub Codespaces</text></g><!--entity docker--><g id="elem_docker"><rect fill="#F1F1F1" height="46.2969" rx="2.5" ry="2.5" style="stroke:#181818;stroke-width:0.5;" width="89.5195" x="451.63" y="130.3"/><rect fill="#F1F1F1" height="10" style="stroke:#181818;stroke-width:0.5;" width="15" x="521.1495" y="135.3"/><rect fill="#F1F1F1" height="2" style="stroke:#181818;stroke-width:0.5;" width="4" x="519.1495" y="137.3"/><rect fill="#F1F1F1" height="2" style="stroke:#181818;stroke-width:0.5;" width="4" x="519.1495" y="141.3"/><text fill="#000000" font-family="sans-serif" font-size="14" lengthAdjust="spacing" textLength="49.5195" x="466.63" y="163.2951">Docker</text></g><!--entity actions--><g id="elem_actions"><rect fill="#F1F1F1" height="46.2969" rx="2.5" ry="2.5" style="stroke:#181818;stroke-width:0.5;" width="144.3506" x="102.22" y="7"/><rect fill="#F1F1F1" height="10" style="stroke:#181818;stroke-width:0.5;" width="15" x="226.5706" y="12"/><rect fill="#F1F1F1" height="2" style="stroke:#181818;stroke-width:0.5;" width="4" x="224.5706" y="14"/><rect fill="#F1F1F1" height="2" style="stroke:#181818;stroke-width:0.5;" width="4" x="224.5706" y="18"/><text fill="#000000" font-family="sans-serif" font-size="14" lengthAdjust="spacing" textLength="104.3506" x="117.22" y="39.9951">GitHub Actions</text></g><!--entity java--><g id="elem_java"><rect fill="#F1F1F1" height="46.2969" rx="2.5" ry="2.5" style="stroke:#181818;stroke-width:0.5;" width="69.5723" x="397.6" y="253.59"/><rect fill="#F1F1F1" height="10" style="stroke:#181818;stroke-width:0.5;" width="15" x="447.1723" y="258.59"/><rect fill="#F1F1F1" height="2" style="stroke:#181818;stroke-width:0.5;" width="4" x="445.1723" y="260.59"/><rect fill="#F1F1F1" height="2" style="stroke:#181818;stroke-width:0.5;" width="4" x="445.1723" y="264.59"/><text fill="#000000" font-family="sans-serif" font-size="14" lengthAdjust="spacing" textLength="29.5723" x="412.6" y="286.5851">Java</text></g><!--link codespaces to github--><g id="link_codespaces_github"><path d="M305.67,176.89 C290.15,191.43 268.61,210.1 247.39,223.59 C225.37,237.59 198.98,249.84 177.03,258.94 " fill="#FFFFFF" fill-opacity="0.00000" id="codespaces-github" style="stroke:#181818;stroke-width:1;"/><text fill="#000000" font-family="sans-serif" font-size="13" lengthAdjust="spacing" textLength="40.2378" x="272.39" y="219.6569">Utiliza</text></g><!--link git to github--><g id="link_git_github"><path d="M148.79,176.97 C141.03,185.39 133.47,195.61 129.39,206.59 C123.86,221.46 124.83,239.38 127.07,253.25 " fill="#FFFFFF" fill-opacity="0.00000" id="git-github" style="stroke:#181818;stroke-width:1;"/><text fill="#000000" font-family="sans-serif" font-size="13" lengthAdjust="spacing" textLength="112.8359" x="130.39" y="219.6569">Aloja repositorios</text></g><!--link actions to github--><g id="link_actions_github"><path d="M118.52,53.62 C86.45,69.77 48.96,94.96 30.39,130.3 C6,176.71 58.98,225.62 97.33,253.24 " fill="#FFFFFF" fill-opacity="0.00000" id="actions-github" style="stroke:#181818;stroke-width:1;"/><text fill="#000000" font-family="sans-serif" font-size="13" lengthAdjust="spacing" textLength="94.3643" x="31.39" y="158.0069">Se integra con</text></g><!--link actions to git--><g id="link_actions_git"><path d="M174.39,53.68 C174.39,75.47 174.39,108.29 174.39,130.03 " fill="#FFFFFF" fill-opacity="0.00000" id="actions-git" style="stroke:#181818;stroke-width:1;"/><text fill="#000000" font-family="sans-serif" font-size="13" lengthAdjust="spacing" textLength="40.2378" x="175.39" y="96.3669">Utiliza</text></g><!--link actions to docker--><g id="link_actions_docker"><path d="M234.2,53.68 C297.13,77.38 394.74,114.15 451.42,135.51 " fill="#FFFFFF" fill-opacity="0.00000" id="actions-docker" style="stroke:#181818;stroke-width:1;"/><text fill="#000000" font-family="sans-serif" font-size="13" lengthAdjust="spacing" textLength="238.2148" x="356.39" y="96.3669">Construye y despliega contenedores</text></g><!--link codespaces to java--><g id="link_codespaces_java"><path d="M337.04,176.81 C343.27,191.13 352.64,209.6 364.39,223.59 C373.76,234.76 385.93,245.02 397.37,253.43 " fill="#FFFFFF" fill-opacity="0.00000" id="codespaces-java" style="stroke:#181818;stroke-width:1;"/><text fill="#000000" font-family="sans-serif" font-size="13" lengthAdjust="spacing" textLength="86.9502" x="365.39" y="219.6569">Desarrolla en</text></g><!--link docker to java--><g id="link_docker_java"><path d="M484.5,176.98 C473.01,198.76 455.69,231.59 444.21,253.33 " fill="#FFFFFF" fill-opacity="0.00000" id="docker-java" style="stroke:#181818;stroke-width:1;"/><text fill="#000000" font-family="sans-serif" font-size="13" lengthAdjust="spacing" textLength="175.1572" x="468.39" y="219.6569">Contiene la aplicaci&#243;n Java</text></g><!--SRC=[TL51JiCm4Bpx5NjhAz4-W5jf1QZY04IS8WvRPnNSkdRaTK7bMpo1Zx6naxQXS8YqtfcTpCwEOE5tZNVa8Z4qmJXj6hJ4ghmpyNw_VWLag4ryswzJgt_tkCnNn0rguWJfurELIw-t55AxIkLnQAwZyIvFOAvLkS9tJ9sD54gDu9aiQi54woGBqsdd1wxX9HfhFb59Oz2VMxz12DHuDj47urbrlndG2W8ZYzS1nRVxHJcJFmFo8e8jf173_a1mWDQRDLGdcKYEAXykJBTRoToI64FmrYAGKvtS2HRPQ4G114SHrPB0zvU3LPV9-RcmCcqyxRbWpARZhorDX5ZU1jpHXmzR6DEidbr1qPwtdgI8ETKjxGQPP06eC7hkgO-UOnseU7h8z2Q_UNYLTblv_ZGanE7w-OyN0OpW5C6Hyby8HU-wOyfCxonVKmoHZZBq0m00]--></g></svg>