<svg xmlns="http://www.w3.org/2000/svg" xmlns:xlink="http://www.w3.org/1999/xlink" contentStyleType="text/css" data-diagram-type="STATE" height="908px" preserveAspectRatio="none" style="width:258px;height:908px;background:#FFFFFF;" version="1.1" viewBox="0 0 258 908" width="258px" zoomAndPan="magnify"><defs/><g><ellipse cx="155.92" cy="16" fill="#222222" rx="10" ry="10" style="stroke:#222222;stroke-width:1;"/><g id="Activaci&#243;n"><rect fill="#F1F1F1" height="50" rx="12.5" ry="12.5" style="stroke:#181818;stroke-width:0.5;" width="92.543" x="109.64" y="87"/><line style="stroke:#181818;stroke-width:0.5;" x1="109.64" x2="202.183" y1="113.2969" y2="113.2969"/><text fill="#000000" font-family="sans-serif" font-size="14" lengthAdjust="spacing" textLength="72.543" x="119.64" y="104.9951">Activaci&#243;n</text></g><g id="Compilaci&#243;n"><rect fill="#F1F1F1" height="50" rx="12.5" ry="12.5" style="stroke:#181818;stroke-width:0.5;" width="106.249" x="102.79" y="198"/><line style="stroke:#181818;stroke-width:0.5;" x1="102.79" x2="209.039" y1="224.2969" y2="224.2969"/><text fill="#000000" font-family="sans-serif" font-size="14" lengthAdjust="spacing" textLength="86.249" x="112.79" y="215.9951">Compilaci&#243;n</text></g><g id="Pruebas"><rect fill="#F1F1F1" height="50" rx="12.5" ry="12.5" style="stroke:#181818;stroke-width:0.5;" width="76.4443" x="117.69" y="309"/><line style="stroke:#181818;stroke-width:0.5;" x1="117.69" x2="194.1343" y1="335.2969" y2="335.2969"/><text fill="#000000" font-family="sans-serif" font-size="14" lengthAdjust="spacing" textLength="56.4443" x="127.69" y="326.9951">Pruebas</text></g><g id="DespliegueStaging"><rect fill="#F1F1F1" height="50" rx="12.5" ry="12.5" style="stroke:#181818;stroke-width:0.5;" width="151.8311" x="7" y="420"/><line style="stroke:#181818;stroke-width:0.5;" x1="7" x2="158.8311" y1="446.2969" y2="446.2969"/><text fill="#000000" font-family="sans-serif" font-size="14" lengthAdjust="spacing" textLength="131.8311" x="17" y="437.9951">DespliegueStaging</text></g><g id="Aprobaci&#243;nManual"><rect fill="#F1F1F1" height="50" rx="12.5" ry="12.5" style="stroke:#181818;stroke-width:0.5;" width="150.1494" x="80.84" y="531"/><line style="stroke:#181818;stroke-width:0.5;" x1="80.84" x2="230.9894" y1="557.2969" y2="557.2969"/><text fill="#000000" font-family="sans-serif" font-size="14" lengthAdjust="spacing" textLength="130.1494" x="90.84" y="548.9951">Aprobaci&#243;nManual</text></g><g id="DespliegueProducci&#243;n"><rect fill="#F1F1F1" height="50" rx="12.5" ry="12.5" style="stroke:#181818;stroke-width:0.5;" width="175.5859" x="68.12" y="658"/><line style="stroke:#181818;stroke-width:0.5;" x1="68.12" x2="243.7059" y1="684.2969" y2="684.2969"/><text fill="#000000" font-family="sans-serif" font-size="14" lengthAdjust="spacing" textLength="155.5859" x="78.12" y="675.9951">DespliegueProducci&#243;n</text></g><g id="Monitoreo"><rect fill="#F1F1F1" height="50" rx="12.5" ry="12.5" style="stroke:#181818;stroke-width:0.5;" width="90.3965" x="110.72" y="769"/><line style="stroke:#181818;stroke-width:0.5;" x1="110.72" x2="201.1165" y1="795.2969" y2="795.2969"/><text fill="#000000" font-family="sans-serif" font-size="14" lengthAdjust="spacing" textLength="70.3965" x="120.72" y="786.9951">Monitoreo</text></g><ellipse cx="155.92" cy="891" fill="#FFFFFF" fill-opacity="0.00000" rx="11" ry="11" style="stroke:#222222;stroke-width:1;"/><ellipse cx="155.92" cy="891" fill="#222222" rx="6" ry="6" style="stroke:#222222;stroke-width:1;"/><!--link *start* to Activaci?n--><g id="link_*start*_Activaci&#243;n"><path d="M155.92,26.36 C155.92,40.29 155.92,60.95 155.92,80.65 " fill="#FFFFFF" fill-opacity="0.00000" id="*start*-to-Activaci&#243;n" style="stroke:#181818;stroke-width:1;"/><polygon fill="#181818" points="155.92,86.65,159.92,77.65,155.92,81.65,151.92,77.65,155.92,86.65" style="stroke:#181818;stroke-width:1;"/></g><!--link Activaci?n to Compilaci?n--><g id="link_Activaci&#243;n_Compilaci&#243;n"><path d="M155.92,137.46 C155.92,155.41 155.92,173.69 155.92,191.62 " fill="#FFFFFF" fill-opacity="0.00000" id="Activaci&#243;n-to-Compilaci&#243;n" style="stroke:#181818;stroke-width:1;"/><polygon fill="#181818" points="155.92,197.62,159.92,188.62,155.92,192.62,151.92,188.62,155.92,197.62" style="stroke:#181818;stroke-width:1;"/></g><!--link Compilaci?n to Pruebas--><g id="link_Compilaci&#243;n_Pruebas"><path d="M155.92,248.46 C155.92,266.41 155.92,284.69 155.92,302.62 " fill="#FFFFFF" fill-opacity="0.00000" id="Compilaci&#243;n-to-Pruebas" style="stroke:#181818;stroke-width:1;"/><polygon fill="#181818" points="155.92,308.62,159.92,299.62,155.92,303.62,151.92,299.62,155.92,308.62" style="stroke:#181818;stroke-width:1;"/></g><!--link Pruebas to DespliegueStaging--><g id="link_Pruebas_DespliegueStaging"><path d="M139.53,359.46 C127.51,377.41 114.5891,396.705 102.5791,414.635 " fill="#FFFFFF" fill-opacity="0.00000" id="Pruebas-to-DespliegueStaging" style="stroke:#181818;stroke-width:1;"/><polygon fill="#181818" points="99.24,419.62,107.572,414.3685,102.0226,415.4658,100.9253,409.9164,99.24,419.62" style="stroke:#181818;stroke-width:1;"/></g><!--link DespliegueStaging to Aprobaci?nManual--><g id="link_DespliegueStaging_Aprobaci&#243;nManual"><path d="M99.3,470.46 C111.32,488.41 124.2409,507.705 136.2509,525.635 " fill="#FFFFFF" fill-opacity="0.00000" id="DespliegueStaging-to-Aprobaci&#243;nManual" style="stroke:#181818;stroke-width:1;"/><polygon fill="#181818" points="139.59,530.62,137.9047,520.9164,136.8074,526.4658,131.258,525.3685,139.59,530.62" style="stroke:#181818;stroke-width:1;"/></g><!--link Aprobaci?nManual to DespliegueProducci?n--><g id="link_Aprobaci&#243;nManual_DespliegueProducci&#243;n"><path d="M155.92,581.4 C155.92,603.42 155.92,629.66 155.92,651.66 " fill="#FFFFFF" fill-opacity="0.00000" id="Aprobaci&#243;nManual-to-DespliegueProducci&#243;n" style="stroke:#181818;stroke-width:1;"/><polygon fill="#181818" points="155.92,657.66,159.92,648.66,155.92,652.66,151.92,648.66,155.92,657.66" style="stroke:#181818;stroke-width:1;"/><text fill="#000000" font-family="sans-serif" font-size="13" lengthAdjust="spacing" textLength="62.8672" x="156.92" y="624.0669">Aprobado</text></g><!--link Aprobaci?nManual to Pruebas--><g id="link_Aprobaci&#243;nManual_Pruebas"><path d="M163.21,530.72 C167.88,513.86 173.5,490.78 175.92,470 C178.48,447.93 178.48,442.07 175.92,420 C173.5,399.22 169.4816,381.9223 164.8116,365.0623 " fill="#FFFFFF" fill-opacity="0.00000" id="Aprobaci&#243;nManual-to-Pruebas" style="stroke:#181818;stroke-width:1;"/><polygon fill="#181818" points="163.21,359.28,161.7576,369.0212,164.5447,364.0986,169.4673,366.8857,163.21,359.28" style="stroke:#181818;stroke-width:1;"/><text fill="#000000" font-family="sans-serif" font-size="13" lengthAdjust="spacing" textLength="71.3794" x="178.92" y="449.5669">Rechazado</text></g><!--link DespliegueProducci?n to Monitoreo--><g id="link_DespliegueProducci&#243;n_Monitoreo"><path d="M155.92,708.46 C155.92,726.41 155.92,744.69 155.92,762.62 " fill="#FFFFFF" fill-opacity="0.00000" id="DespliegueProducci&#243;n-to-Monitoreo" style="stroke:#181818;stroke-width:1;"/><polygon fill="#181818" points="155.92,768.62,159.92,759.62,155.92,763.62,151.92,759.62,155.92,768.62" style="stroke:#181818;stroke-width:1;"/></g><!--link Monitoreo to *end*--><g id="link_Monitoreo_*end*"><path d="M155.92,819.46 C155.92,839.04 155.92,859.49 155.92,873.8 " fill="#FFFFFF" fill-opacity="0.00000" id="Monitoreo-to-*end*" style="stroke:#181818;stroke-width:1;"/><polygon fill="#181818" points="155.92,879.8,159.92,870.8,155.92,874.8,151.92,870.8,155.92,879.8" style="stroke:#181818;stroke-width:1;"/></g><!--SRC=[YzQALT3LjLDmJ2x9B4jCpZoyEOzB0GYG-61vv_pSWimS90N80c0L0KMbgKc9nM19A1iixf9QN92JcPfUcXfSafYUcPSELe4X2d55GL5-4iHCtyIyqiGSY5lGHT7C3IZAJobD1ijRGHMdvEFH2NMTbK9GQd96OXLCCLO3mHfyy_CoI_ABKY7gu3omNBHMB000]--></g></svg>