<svg xmlns="http://www.w3.org/2000/svg" xmlns:xlink="http://www.w3.org/1999/xlink" contentStyleType="text/css" data-diagram-type="CLASS" height="928px" preserveAspectRatio="none" style="width:708px;height:928px;background:#FFFFFF;" version="1.1" viewBox="0 0 708 928" width="708px" zoomAndPan="magnify"><defs/><g><!--class Plataforma--><g id="elem_Plataforma"><rect codeLine="1" fill="#F1F1F1" height="121.4531" id="Plataforma" rx="2.5" ry="2.5" style="stroke:#181818;stroke-width:0.5;" width="163.3682" x="488.02" y="7"/><ellipse cx="527.7348" cy="27.1328" fill="#ADD1B2" rx="11" ry="11" style="stroke:#181818;stroke-width:1;"/><path d="M530.7036,32.7734 Q530.1255,33.0703 529.4848,33.2109 Q528.8442,33.3672 528.1411,33.3672 Q525.6411,33.3672 524.313,31.7266 Q523.0005,30.0703 523.0005,26.9453 Q523.0005,23.8203 524.313,22.1641 Q525.6411,20.5078 528.1411,20.5078 Q528.8442,20.5078 529.4848,20.6641 Q530.1411,20.8203 530.7036,21.1172 L530.7036,23.8359 Q530.0786,23.2578 529.4848,22.9922 Q528.8911,22.7109 528.2661,22.7109 Q526.9223,22.7109 526.2348,23.7891 Q525.5473,24.8516 525.5473,26.9453 Q525.5473,29.0391 526.2348,30.1172 Q526.9223,31.1797 528.2661,31.1797 Q528.8911,31.1797 529.4848,30.9141 Q530.0786,30.6328 530.7036,30.0547 L530.7036,32.7734 Z " fill="#000000"/><text fill="#000000" font-family="sans-serif" font-size="12" font-style="italic" lengthAdjust="spacing" textLength="59.6191" x="555.6406" y="23.1387">&#171;Factory&#187;</text><text fill="#000000" font-family="sans-serif" font-size="14" lengthAdjust="spacing" textLength="76.4463" x="547.227" y="38.9639">Plataforma</text><line style="stroke:#181818;stroke-width:0.5;" x1="489.02" x2="650.3882" y1="47.2656" y2="47.2656"/><line style="stroke:#181818;stroke-width:0.5;" x1="489.02" x2="650.3882" y1="55.2656" y2="55.2656"/><ellipse cx="499.02" cy="68.9141" fill="#84BE84" rx="3" ry="3" style="stroke:#038048;stroke-width:1;"/><text fill="#000000" font-family="sans-serif" font-size="14" lengthAdjust="spacing" textLength="100.5293" x="508.02" y="72.2607">crearUsuario()</text><ellipse cx="499.02" cy="85.2109" fill="#84BE84" rx="3" ry="3" style="stroke:#038048;stroke-width:1;"/><text fill="#000000" font-family="sans-serif" font-size="14" lengthAdjust="spacing" textLength="87.5889" x="508.02" y="88.5576">crearCurso()</text><ellipse cx="499.02" cy="101.5078" fill="#84BE84" rx="3" ry="3" style="stroke:#038048;stroke-width:1;"/><text fill="#000000" font-family="sans-serif" font-size="14" lengthAdjust="spacing" textLength="124.4277" x="508.02" y="104.8545">gestionarCursos()</text><ellipse cx="499.02" cy="117.8047" fill="#84BE84" rx="3" ry="3" style="stroke:#038048;stroke-width:1;"/><text fill="#000000" font-family="sans-serif" font-size="14" lengthAdjust="spacing" textLength="137.3682" x="508.02" y="121.1514">gestionarUsuarios()</text></g><!--class Usuario--><g id="elem_Usuario"><rect codeLine="8" fill="#F1F1F1" height="129.4844" id="Usuario" rx="2.5" ry="2.5" style="stroke:#181818;stroke-width:0.5;" width="131.2803" x="329.07" y="205.46"/><ellipse cx="364.8043" cy="221.46" fill="#A9DCDF" rx="11" ry="11" style="stroke:#181818;stroke-width:1;"/><path d="M364.9137,216.8037 L363.7574,221.8819 L366.0855,221.8819 L364.9137,216.8037 Z M363.4293,214.5694 L366.4137,214.5694 L369.773,226.96 L367.3199,226.96 L366.5543,223.8975 L363.273,223.8975 L362.523,226.96 L360.0855,226.96 L363.4293,214.5694 Z " fill="#000000"/><text fill="#000000" font-family="sans-serif" font-size="14" font-style="italic" lengthAdjust="spacing" textLength="53.2041" x="383.4119" y="226.3067">Usuario</text><line style="stroke:#181818;stroke-width:0.5;" x1="330.07" x2="459.3503" y1="237.46" y2="237.46"/><rect fill="#FFFFFF" fill-opacity="0.00000" height="6" style="stroke:#C82930;stroke-width:1;" width="6" x="337.07" y="248.1084"/><text fill="#000000" font-family="sans-serif" font-size="14" lengthAdjust="spacing" textLength="40.1953" x="349.07" y="254.4551">id: int</text><rect fill="#FFFFFF" fill-opacity="0.00000" height="6" style="stroke:#C82930;stroke-width:1;" width="6" x="337.07" y="264.4053"/><text fill="#000000" font-family="sans-serif" font-size="14" lengthAdjust="spacing" textLength="105.2803" x="349.07" y="270.752">nombre: String</text><rect fill="#FFFFFF" fill-opacity="0.00000" height="6" style="stroke:#C82930;stroke-width:1;" width="6" x="337.07" y="280.7022"/><text fill="#000000" font-family="sans-serif" font-size="14" lengthAdjust="spacing" textLength="95.9014" x="349.07" y="287.0489">correo: String</text><line style="stroke:#181818;stroke-width:0.5;" x1="330.07" x2="459.3503" y1="294.3506" y2="294.3506"/><ellipse cx="340.07" cy="307.9991" fill="#84BE84" rx="3" ry="3" style="stroke:#038048;stroke-width:1;"/><text fill="#000000" font-family="sans-serif" font-size="14" lengthAdjust="spacing" textLength="99.6201" x="349.07" y="311.3457">iniciarSesion()</text><ellipse cx="340.07" cy="324.2959" fill="#84BE84" rx="3" ry="3" style="stroke:#038048;stroke-width:1;"/><text fill="#000000" font-family="sans-serif" font-size="14" lengthAdjust="spacing" textLength="99.2031" x="349.07" y="327.6426">cerrarSesion()</text></g><!--class Estudiante--><g id="elem_Estudiante"><rect codeLine="16" fill="#F1F1F1" height="96.8906" id="Estudiante" rx="2.5" ry="2.5" style="stroke:#181818;stroke-width:0.5;" width="165.4121" x="7" y="411.94"/><ellipse cx="48.3606" cy="427.94" fill="#ADD1B2" rx="11" ry="11" style="stroke:#181818;stroke-width:1;"/><path d="M51.3293,433.5806 Q50.7512,433.8775 50.1106,434.0181 Q49.47,434.1744 48.7668,434.1744 Q46.2668,434.1744 44.9387,432.5337 Q43.6262,430.8775 43.6262,427.7525 Q43.6262,424.6275 44.9387,422.9712 Q46.2668,421.315 48.7668,421.315 Q49.47,421.315 50.1106,421.4712 Q50.7668,421.6275 51.3293,421.9244 L51.3293,424.6431 Q50.7043,424.065 50.1106,423.7994 Q49.5168,423.5181 48.8918,423.5181 Q47.5481,423.5181 46.8606,424.5962 Q46.1731,425.6587 46.1731,427.7525 Q46.1731,429.8462 46.8606,430.9244 Q47.5481,431.9869 48.8918,431.9869 Q49.5168,431.9869 50.1106,431.7212 Q50.7043,431.44 51.3293,430.8619 L51.3293,433.5806 Z " fill="#000000"/><text fill="#000000" font-family="sans-serif" font-size="14" lengthAdjust="spacing" textLength="74.833" x="68.2185" y="432.7867">Estudiante</text><line style="stroke:#181818;stroke-width:0.5;" x1="8" x2="171.4121" y1="443.94" y2="443.94"/><rect fill="#FFFFFF" fill-opacity="0.00000" height="6" style="stroke:#C82930;stroke-width:1;" width="6" x="15" y="454.5884"/><text fill="#000000" font-family="sans-serif" font-size="14" lengthAdjust="spacing" textLength="117.3389" x="27" y="460.9351">matricula: String</text><line style="stroke:#181818;stroke-width:0.5;" x1="8" x2="171.4121" y1="468.2369" y2="468.2369"/><ellipse cx="18" cy="481.8853" fill="#84BE84" rx="3" ry="3" style="stroke:#038048;stroke-width:1;"/><text fill="#000000" font-family="sans-serif" font-size="14" lengthAdjust="spacing" textLength="123.0264" x="27" y="485.232">inscribirseCurso()</text><ellipse cx="18" cy="498.1822" fill="#84BE84" rx="3" ry="3" style="stroke:#038048;stroke-width:1;"/><text fill="#000000" font-family="sans-serif" font-size="14" lengthAdjust="spacing" textLength="139.4121" x="27" y="501.5289">realizarEvaluacion()</text></g><!--class Profesor--><g id="elem_Profesor"><rect codeLine="22" fill="#F1F1F1" height="96.8906" id="Profesor" rx="2.5" ry="2.5" style="stroke:#181818;stroke-width:0.5;" width="166.6631" x="207.37" y="411.94"/><ellipse cx="257.4911" cy="427.94" fill="#ADD1B2" rx="11" ry="11" style="stroke:#181818;stroke-width:1;"/><path d="M260.4598,433.5806 Q259.8817,433.8775 259.2411,434.0181 Q258.6005,434.1744 257.8973,434.1744 Q255.3973,434.1744 254.0692,432.5337 Q252.7567,430.8775 252.7567,427.7525 Q252.7567,424.6275 254.0692,422.9712 Q255.3973,421.315 257.8973,421.315 Q258.6005,421.315 259.2411,421.4712 Q259.8973,421.6275 260.4598,421.9244 L260.4598,424.6431 Q259.8348,424.065 259.2411,423.7994 Q258.6473,423.5181 258.0223,423.5181 Q256.6786,423.5181 255.9911,424.5962 Q255.3036,425.6587 255.3036,427.7525 Q255.3036,429.8462 255.9911,430.9244 Q256.6786,431.9869 258.0223,431.9869 Q258.6473,431.9869 259.2411,431.7212 Q259.8348,431.44 260.4598,430.8619 L260.4598,433.5806 Z " fill="#000000"/><text fill="#000000" font-family="sans-serif" font-size="14" lengthAdjust="spacing" textLength="57.9209" x="277.9911" y="432.7867">Profesor</text><line style="stroke:#181818;stroke-width:0.5;" x1="208.37" x2="373.0331" y1="443.94" y2="443.94"/><rect fill="#FFFFFF" fill-opacity="0.00000" height="6" style="stroke:#C82930;stroke-width:1;" width="6" x="215.37" y="454.5884"/><text fill="#000000" font-family="sans-serif" font-size="14" lengthAdjust="spacing" textLength="138.6533" x="227.37" y="460.9351">especialidad: String</text><line style="stroke:#181818;stroke-width:0.5;" x1="208.37" x2="373.0331" y1="468.2369" y2="468.2369"/><ellipse cx="218.37" cy="481.8853" fill="#84BE84" rx="3" ry="3" style="stroke:#038048;stroke-width:1;"/><text fill="#000000" font-family="sans-serif" font-size="14" lengthAdjust="spacing" textLength="87.5889" x="227.37" y="485.232">crearCurso()</text><ellipse cx="218.37" cy="498.1822" fill="#84BE84" rx="3" ry="3" style="stroke:#038048;stroke-width:1;"/><text fill="#000000" font-family="sans-serif" font-size="14" lengthAdjust="spacing" textLength="140.6631" x="227.37" y="501.5289">calificarEstudiante()</text></g><!--class Administrador--><g id="elem_Administrador"><rect codeLine="28" fill="#F1F1F1" height="80.5938" id="Administrador" rx="2.5" ry="2.5" style="stroke:#181818;stroke-width:0.5;" width="179.3164" x="409.05" y="420.09"/><ellipse cx="445.7563" cy="436.09" fill="#ADD1B2" rx="11" ry="11" style="stroke:#181818;stroke-width:1;"/><path d="M448.7251,441.7306 Q448.147,442.0275 447.5063,442.1681 Q446.8657,442.3244 446.1626,442.3244 Q443.6626,442.3244 442.3345,440.6838 Q441.022,439.0275 441.022,435.9025 Q441.022,432.7775 442.3345,431.1213 Q443.6626,429.465 446.1626,429.465 Q446.8657,429.465 447.5063,429.6213 Q448.1626,429.7775 448.7251,430.0744 L448.7251,432.7931 Q448.1001,432.215 447.5063,431.9494 Q446.9126,431.6681 446.2876,431.6681 Q444.9438,431.6681 444.2563,432.7463 Q443.5688,433.8088 443.5688,435.9025 Q443.5688,437.9963 444.2563,439.0744 Q444.9438,440.1369 446.2876,440.1369 Q446.9126,440.1369 447.5063,439.8713 Q448.1001,439.59 448.7251,439.0119 L448.7251,441.7306 Z " fill="#000000"/><text fill="#000000" font-family="sans-serif" font-size="14" lengthAdjust="spacing" textLength="99.0801" x="464.58" y="440.9367">Administrador</text><line style="stroke:#181818;stroke-width:0.5;" x1="410.05" x2="587.3664" y1="452.09" y2="452.09"/><line style="stroke:#181818;stroke-width:0.5;" x1="410.05" x2="587.3664" y1="460.09" y2="460.09"/><ellipse cx="420.05" cy="473.7384" fill="#84BE84" rx="3" ry="3" style="stroke:#038048;stroke-width:1;"/><text fill="#000000" font-family="sans-serif" font-size="14" lengthAdjust="spacing" textLength="137.3682" x="429.05" y="477.0851">gestionarUsuarios()</text><ellipse cx="420.05" cy="490.0353" fill="#84BE84" rx="3" ry="3" style="stroke:#038048;stroke-width:1;"/><text fill="#000000" font-family="sans-serif" font-size="14" lengthAdjust="spacing" textLength="153.3164" x="429.05" y="493.382">gestionarPlataforma()</text></g><!--class Curso--><g id="elem_Curso"><rect codeLine="33" fill="#F1F1F1" height="145.7813" id="Curso" rx="2.5" ry="2.5" style="stroke:#181818;stroke-width:0.5;" width="167.6885" x="206.86" y="585.83"/><ellipse cx="266.3224" cy="601.83" fill="#ADD1B2" rx="11" ry="11" style="stroke:#181818;stroke-width:1;"/><path d="M269.2912,607.4706 Q268.713,607.7675 268.0724,607.9081 Q267.4318,608.0644 266.7287,608.0644 Q264.2287,608.0644 262.9005,606.4237 Q261.588,604.7675 261.588,601.6425 Q261.588,598.5175 262.9005,596.8612 Q264.2287,595.205 266.7287,595.205 Q267.4318,595.205 268.0724,595.3612 Q268.7287,595.5175 269.2912,595.8144 L269.2912,598.5331 Q268.6662,597.955 268.0724,597.6894 Q267.4787,597.4081 266.8537,597.4081 Q265.5099,597.4081 264.8224,598.4862 Q264.1349,599.5487 264.1349,601.6425 Q264.1349,603.7362 264.8224,604.8144 Q265.5099,605.8769 266.8537,605.8769 Q267.4787,605.8769 268.0724,605.6112 Q268.6662,605.33 269.2912,604.7519 L269.2912,607.4706 Z " fill="#000000"/><text fill="#000000" font-family="sans-serif" font-size="14" lengthAdjust="spacing" textLength="40.2637" x="286.8224" y="606.6767">Curso</text><line style="stroke:#181818;stroke-width:0.5;" x1="207.86" x2="373.5485" y1="617.83" y2="617.83"/><rect fill="#FFFFFF" fill-opacity="0.00000" height="6" style="stroke:#C82930;stroke-width:1;" width="6" x="214.86" y="628.4784"/><text fill="#000000" font-family="sans-serif" font-size="14" lengthAdjust="spacing" textLength="40.1953" x="226.86" y="634.8251">id: int</text><rect fill="#FFFFFF" fill-opacity="0.00000" height="6" style="stroke:#C82930;stroke-width:1;" width="6" x="214.86" y="644.7753"/><text fill="#000000" font-family="sans-serif" font-size="14" lengthAdjust="spacing" textLength="87.1445" x="226.86" y="651.122">titulo: String</text><rect fill="#FFFFFF" fill-opacity="0.00000" height="6" style="stroke:#C82930;stroke-width:1;" width="6" x="214.86" y="661.0722"/><text fill="#000000" font-family="sans-serif" font-size="14" lengthAdjust="spacing" textLength="130.9971" x="226.86" y="667.4189">descripcion: String</text><line style="stroke:#181818;stroke-width:0.5;" x1="207.86" x2="373.5485" y1="674.7206" y2="674.7206"/><ellipse cx="217.86" cy="688.3691" fill="#84BE84" rx="3" ry="3" style="stroke:#038048;stroke-width:1;"/><text fill="#000000" font-family="sans-serif" font-size="14" lengthAdjust="spacing" textLength="122.8555" x="226.86" y="691.7157">agregarMaterial()</text><ellipse cx="217.86" cy="704.6659" fill="#84BE84" rx="3" ry="3" style="stroke:#038048;stroke-width:1;"/><text fill="#000000" font-family="sans-serif" font-size="14" lengthAdjust="spacing" textLength="120.7021" x="226.86" y="708.0126">asignarProfesor()</text><ellipse cx="217.86" cy="720.9628" fill="#84BE84" rx="3" ry="3" style="stroke:#038048;stroke-width:1;"/><text fill="#000000" font-family="sans-serif" font-size="14" lengthAdjust="spacing" textLength="141.6885" x="226.86" y="724.3095">inscribirEstudiante()</text></g><!--class Evaluacion--><g id="elem_Evaluacion"><rect codeLine="42" fill="#F1F1F1" height="113.1875" id="Evaluacion" rx="2.5" ry="2.5" style="stroke:#181818;stroke-width:0.5;" width="161.0576" x="210.18" y="808.61"/><ellipse cx="249.0212" cy="824.61" fill="#ADD1B2" rx="11" ry="11" style="stroke:#181818;stroke-width:1;"/><path d="M251.99,830.2506 Q251.4118,830.5475 250.7712,830.6881 Q250.1306,830.8444 249.4275,830.8444 Q246.9275,830.8444 245.5993,829.2037 Q244.2868,827.5475 244.2868,824.4225 Q244.2868,821.2975 245.5993,819.6412 Q246.9275,817.985 249.4275,817.985 Q250.1306,817.985 250.7712,818.1412 Q251.4275,818.2975 251.99,818.5944 L251.99,821.3131 Q251.365,820.735 250.7712,820.4694 Q250.1775,820.1881 249.5525,820.1881 Q248.2087,820.1881 247.5212,821.2662 Q246.8337,822.3287 246.8337,824.4225 Q246.8337,826.5162 247.5212,827.5944 Q248.2087,828.6569 249.5525,828.6569 Q250.1775,828.6569 250.7712,828.3912 Q251.365,828.11 251.99,827.5319 L251.99,830.2506 Z " fill="#000000"/><text fill="#000000" font-family="sans-serif" font-size="14" lengthAdjust="spacing" textLength="76.0771" x="268.3193" y="829.4567">Evaluacion</text><line style="stroke:#181818;stroke-width:0.5;" x1="211.18" x2="370.2376" y1="840.61" y2="840.61"/><rect fill="#FFFFFF" fill-opacity="0.00000" height="6" style="stroke:#C82930;stroke-width:1;" width="6" x="218.18" y="851.2584"/><text fill="#000000" font-family="sans-serif" font-size="14" lengthAdjust="spacing" textLength="40.1953" x="230.18" y="857.6051">id: int</text><rect fill="#FFFFFF" fill-opacity="0.00000" height="6" style="stroke:#C82930;stroke-width:1;" width="6" x="218.18" y="867.5553"/><text fill="#000000" font-family="sans-serif" font-size="14" lengthAdjust="spacing" textLength="77.7793" x="230.18" y="873.902">tipo: String</text><rect fill="#FFFFFF" fill-opacity="0.00000" height="6" style="stroke:#C82930;stroke-width:1;" width="6" x="218.18" y="883.8522"/><text fill="#000000" font-family="sans-serif" font-size="14" lengthAdjust="spacing" textLength="135.0576" x="230.18" y="890.1989">calificacion: double</text><line style="stroke:#181818;stroke-width:0.5;" x1="211.18" x2="370.2376" y1="897.5006" y2="897.5006"/><ellipse cx="221.18" cy="911.1491" fill="#84BE84" rx="3" ry="3" style="stroke:#038048;stroke-width:1;"/><text fill="#000000" font-family="sans-serif" font-size="14" lengthAdjust="spacing" textLength="65.8301" x="230.18" y="914.4957">calificar()</text></g><!--reverse link Usuario to Estudiante--><g id="link_Usuario_Estudiante"><path codeLine="49" d="M313.5808,321.251 C266.1208,350.531 217.21,380.71 167.26,411.53 " fill="#FFFFFF" fill-opacity="0.00000" id="Usuario-backto-Estudiante" style="stroke:#181818;stroke-width:1;"/><polygon fill="#FFFFFF" fill-opacity="0.00000" points="328.9,311.8,310.4305,316.1446,316.7311,326.3574,328.9,311.8" style="stroke:#181818;stroke-width:1;"/></g><!--reverse link Usuario to Profesor--><g id="link_Usuario_Profesor"><path codeLine="50" d="M350.5017,351.1933 C336.7317,376.1033 329.95,388.38 317.18,411.48 " fill="#FFFFFF" fill-opacity="0.00000" id="Usuario-backto-Profesor" style="stroke:#181818;stroke-width:1;"/><polygon fill="#FFFFFF" fill-opacity="0.00000" points="359.21,335.44,345.2506,348.2905,355.7528,354.096,359.21,335.44" style="stroke:#181818;stroke-width:1;"/></g><!--reverse link Usuario to Administrador--><g id="link_Usuario_Administrador"><path codeLine="51" d="M438.9148,351.1952 C454.3848,379.1952 463.33,395.38 476.84,419.82 " fill="#FFFFFF" fill-opacity="0.00000" id="Usuario-backto-Administrador" style="stroke:#181818;stroke-width:1;"/><polygon fill="#FFFFFF" fill-opacity="0.00000" points="430.21,335.44,433.663,354.0968,444.1665,348.2936,430.21,335.44" style="stroke:#181818;stroke-width:1;"/></g><!--link Plataforma to Curso--><g id="link_Plataforma_Curso"><path codeLine="52" d="M595.85,128.62 C630.81,218.72 680.26,391.12 605.71,508.83 C555.37,588.29 455.8134,624.7983 380.8034,642.2783 " fill="#FFFFFF" fill-opacity="0.00000" id="Plataforma-to-Curso" style="stroke:#181818;stroke-width:1;"/><polygon fill="#181818" points="374.96,643.64,384.633,645.493,379.8295,642.5052,382.8173,637.7018,374.96,643.64" style="stroke:#181818;stroke-width:1;"/><text fill="#000000" font-family="sans-serif" font-size="13" lengthAdjust="spacing" textLength="55.8911" x="644.71" y="378.0069">gestiona</text></g><!--link Plataforma to Usuario--><g id="link_Plataforma_Usuario"><path codeLine="53" d="M517.2,128.88 C496.16,152.98 475.8257,176.2699 454.4657,200.7399 " fill="#FFFFFF" fill-opacity="0.00000" id="Plataforma-to-Usuario" style="stroke:#181818;stroke-width:1;"/><polygon fill="#181818" points="450.52,205.26,459.4519,201.1102,453.8081,201.4932,453.4251,195.8493,450.52,205.26" style="stroke:#181818;stroke-width:1;"/><text fill="#000000" font-family="sans-serif" font-size="13" lengthAdjust="spacing" textLength="28.4565" x="487.71" y="171.5269">crea</text></g><!--link Curso to Evaluacion--><g id="link_Curso_Evaluacion"><path codeLine="54" d="M290.71,732.1 C290.71,757.15 290.71,778.82 290.71,802.33 " fill="#FFFFFF" fill-opacity="0.00000" id="Curso-to-Evaluacion" style="stroke:#181818;stroke-width:1;"/><polygon fill="#181818" points="290.71,808.33,294.71,799.33,290.71,803.33,286.71,799.33,290.71,808.33" style="stroke:#181818;stroke-width:1;"/><text fill="#000000" font-family="sans-serif" font-size="13" lengthAdjust="spacing" textLength="56.2847" x="291.71" y="774.6769">contiene</text></g><!--link Estudiante to Curso--><g id="link_Estudiante_Curso"><path codeLine="55" d="M138.62,509.16 C162.09,532.09 186.429,555.8562 212.479,581.3162 " fill="#FFFFFF" fill-opacity="0.00000" id="Estudiante-to-Curso" style="stroke:#181818;stroke-width:1;"/><polygon fill="#181818" points="216.77,585.51,213.1294,576.3587,213.1942,582.0152,207.5377,582.08,216.77,585.51" style="stroke:#181818;stroke-width:1;"/><text fill="#000000" font-family="sans-serif" font-size="13" lengthAdjust="spacing" textLength="69.8813" x="185.71" y="551.8969">se inscribe</text></g><!--link Profesor to Curso--><g id="link_Profesor_Curso"><path codeLine="56" d="M290.71,509.16 C290.71,532.09 290.71,554.05 290.71,579.51 " fill="#FFFFFF" fill-opacity="0.00000" id="Profesor-to-Curso" style="stroke:#181818;stroke-width:1;"/><polygon fill="#181818" points="290.71,585.51,294.71,576.51,290.71,580.51,286.71,576.51,290.71,585.51" style="stroke:#181818;stroke-width:1;"/><text fill="#000000" font-family="sans-serif" font-size="13" lengthAdjust="spacing" textLength="28.4565" x="291.71" y="551.8969">crea</text></g><!--SRC=[TLFRQiCm37tFL_Xne-G7GYcCqRqD2cKVeDXg43XnaPp1Rly-ft5SnstpbYFbdACZHLiGKGSB7awEUr3RxHjex_XhjrC_bGhFHZC2VyW8JExfESDUHvQ4T2YUt11HkO4ZmLJugofenNCGKlfY81QZOgt8D8e67zy6rxUCZJfwfg6Be7RCw5RW9dn3ce2FA45piQ0qCcTWa9zLz-97Gp1uJC8z13ezMhWX5itK4WkkfbOX1qlVmFjFi2FeGk70xeJYEF6Zd34uj6J051AtaIeT6a-a0tjochE_c3uCF0LfaiH6tKkyg5ptdTDTj1-im9CVhIjMO70AvJmDNSm27MC7_0uUEKoR781GD-d7M1AUuhq_w3NSX_REfRabkzcTSMDhiOnrrbYER_jRrzbDhF75yXfTRQ3AVgEwtiKycnHxML-OcilggxbzAcJZXfeRFE60LNQjERlWaXvMwTpoXedy7m00]--></g></svg>